HIERARCHY
ROOT root
{
	OFFSET	0	13.1	24.9
	CHANNELS 6  Xposition Yposition Zposition Xrotation Yrotation Zrotation
	JOINT spine_1
	{
		OFFSET	0	9.99999	0
		CHANNELS 3  Xrotation Yrotation Zrotation
		JOINT spine_2
		{
			OFFSET	0	112	-10
			CHANNELS 3  Xrotation Yrotation Zrotation
			JOINT spine_3
			{
				OFFSET	0	206.5	19.3
				CHANNELS 3  Xrotation Yrotation Zrotation
				JOINT spine_4
				{
					OFFSET	0	110.4	14.6
					CHANNELS 3  Xrotation Yrotation Zrotation
					JOINT neck_1
					{
						OFFSET	0	71.8	-50.3
						CHANNELS 3  Xrotation Yrotation Zrotation
						JOINT neck_2
						{
							OFFSET	0	86.2	-25.8
							CHANNELS 3  Xrotation Yrotation Zrotation
							JOINT head_ee
							{
								OFFSET	0	179.8	-8.7
								CHANNELS 3  Xrotation Yrotation Zrotation
								End Site
								{
									OFFSET	1	0	0
								}
							}
						}
					}
					JOINT left_clavicle
					{
						OFFSET	-43.2	22.4	-70.8
						CHANNELS 3  Xrotation Yrotation Zrotation
						JOINT left_shoulder
						{
							OFFSET	-93.9	-5.79999	48.7
							CHANNELS 3  Xrotation Yrotation Zrotation
							JOINT left_elbow
							{
								OFFSET	-291.4	-30.8	15.2
								CHANNELS 3  Xrotation Yrotation Zrotation
								JOINT left_lowarm_twist
								{
									OFFSET	-110.7	-3.89999	13.6
									CHANNELS 3  Xrotation Yrotation Zrotation
									JOINT left_hand
									{
										OFFSET	-110.7	-3.89999	13.6
										CHANNELS 3  Xrotation Yrotation Zrotation
										JOINT left_ee
										{
											OFFSET	-80.8	-5.10001	12.1
											CHANNELS 3  Xrotation Yrotation Zrotation
											End Site
											{
												OFFSET	1	0	0
											}
										}
									}
								}
							}
						}
					}
					JOINT right_clavicle
					{
						OFFSET	43.2	22.4	-70.8
						CHANNELS 3  Xrotation Yrotation Zrotation
						JOINT right_shoulder
						{
							OFFSET	93.9	-5.79999	48.7
							CHANNELS 3  Xrotation Yrotation Zrotation
							JOINT right_elbow
							{
								OFFSET	291.4	-30.8	15.2
								CHANNELS 3  Xrotation Yrotation Zrotation
								JOINT right_lowarm_twist
								{
									OFFSET	110.7	-3.89999	13.6
									CHANNELS 3  Xrotation Yrotation Zrotation
									JOINT right_hand
									{
										OFFSET	110.7	-3.89999	13.6
										CHANNELS 3  Xrotation Yrotation Zrotation
										JOINT right_ee
										{
											OFFSET	80.8	-5.10001	12.1
											CHANNELS 3  Xrotation Yrotation Zrotation
											End Site
											{
												OFFSET	1	0	0
											}
										}
									}
								}
							}
						}
					}
				}
			}
		}
	}
	JOINT left_hip
	{
		OFFSET	-82.8	-127.5	0.300001
		CHANNELS 3  Xrotation Yrotation Zrotation
		JOINT left_knee
		{
			OFFSET	-28.2	-396.7	2.2
			CHANNELS 3  Xrotation Yrotation Zrotation
			JOINT left_ankle
			{
				OFFSET	-11.7	-411.3	35.4
				CHANNELS 3  Xrotation Yrotation Zrotation
				JOINT left_toes
				{
					OFFSET	0	-60	-88.6
					CHANNELS 3  Xrotation Yrotation Zrotation
					JOINT left_foot_ee
					{
						OFFSET	-22.5	-16.5	-42.2
						CHANNELS 3  Xrotation Yrotation Zrotation
						End Site
						{
							OFFSET	1	0	0
						}
					}
				}
			}
		}
	}
	JOINT right_hip
	{
		OFFSET	82.8	-127.5	0.300001
		CHANNELS 3  Xrotation Yrotation Zrotation
		JOINT right_knee
		{
			OFFSET	28.2	-396.7	2.2
			CHANNELS 3  Xrotation Yrotation Zrotation
			JOINT right_ankle
			{
				OFFSET	11.7	-411.3	35.4
				CHANNELS 3  Xrotation Yrotation Zrotation
				JOINT right_toes
				{
					OFFSET	0	-60	-88.6
					CHANNELS 3  Xrotation Yrotation Zrotation
					JOINT right_foot_ee
					{
						OFFSET	22.5	-16.5	-42.2
						CHANNELS 3  Xrotation Yrotation Zrotation
						End Site
						{
							OFFSET	1	0	0
						}
					}
				}
			}
		}
	}
}
MOTION
Frames: 13
Frame Time: 0.02
3177.02 653.055 -1669.29 -13.0977844125 58.7548486019 5.53691299566 1.79776 0.804719 4.1305 1.80709 0.540488 4.17324 1.84694 -0.21325 4.20263 1.82258 0.452559 4.18367 -4.15238 15.2564 -3.60615 -3.75713 30.6779 -1.30859 -0.0 0.0 -0.0 -2.43857 23.2525 -0.662126 -36.5949 -11.5159 73.7934 0.94184 -25.0115 0.208904 -39.5706 -2.90562 4.02965 -2.36486 13.2918 -9.41614 -0.0 0.0 -0.0 13.7596 25.8085 -27.4643 14.8229 30.5481 -63.2719 2.37795 49.664 -1.1005 67.8556 2.52094 7.78279 1.65253 -12.3558 -15.7384 0.0 0.0 0.0 26.8912 -3.40339 -5.93758 3.48497 -0.159119 -0.510967 -3.66131 28.1907 0.5735 -34.8978 0.0 0.0 -0.0 0.0 -0.0 -6.24991 -12.7076 14.7179 -9.04172 -0.265355 -1.36082 30.018 19.8078 4.32293 25.7343 -0.0 -0.0 0.0 0.0 0.0 
3141.01052475 661.788 -1661.26707087 -12.0855967753 57.2353270881 4.47031593172 1.23612 1.09783 4.41693 1.2466 0.814835 4.47767 1.31288 -0.0394142 4.55089 1.28463 0.679069 4.50022 -3.59063 15.7288 -2.62864 -3.16242 30.7413 -0.376162 -0.0 0.0 -0.0 -1.63521 22.4088 0.311294 -32.7191 -11.2036 72.576 0.976036 -25.8033 0.223577 -40.1733 -2.96961 4.07308 -2.3876 13.1942 -9.61052 -0.0 0.0 -0.0 13.7329 26.7398 -27.2864 13.5618 28.2406 -62.9824 2.37328 49.6085 -1.09695 67.7077 2.50605 7.77104 1.58029 -12.8585 -15.4366 0.0 0.0 0.0 25.1324 -3.05331 -4.25269 3.63452 -0.166642 -0.532675 -2.18247 28.4871 0.341549 -34.2985 0.0 0.0 -0.0 0.0 -0.0 -6.09546 -9.4409 16.1685 -12.6003 -0.310406 -1.9049 30.0707 13.3737 4.13123 26.6007 -0.0 -0.0 0.0 0.0 0.0 
3118.69059228 669.013 -1661.05522039 -11.3681790319 56.6458836797 3.53749880772 1.16617 1.18791 4.43334 1.17665 0.90369 4.49976 1.25058 0.0390029 4.58926 1.22201 0.762549 4.52576 -3.41863 16.1323 -1.77438 -2.99325 30.8088 0.528246 -0.0 0.0 -0.0 -1.38563 20.5958 0.388019 -28.5898 -11.2635 70.2076 1.08366 -28.2268 0.272475 -40.8509 -3.04211 4.1211 -2.41227 12.6251 -10.0573 -0.0 0.0 -0.0 14.0606 27.5875 -27.9383 11.7199 26.0073 -62.4829 2.2758 48.4195 -1.02336 67.4625 2.4814 7.75148 1.43438 -13.1958 -14.5991 0.0 0.0 0.0 23.3028 -2.94704 -2.94667 3.95472 -0.18294 -0.579088 -1.84726 29.0455 0.289944 -33.5872 0.0 0.0 -0.0 0.0 -0.0 -5.82839 -6.48517 17.3751 -15.6094 -0.322084 -2.36638 30.0772 7.71577 4.01218 27.8914 -0.0 -0.0 0.0 0.0 0.0 
3118.72587601 669.013 -1660.80905024 -11.4411703454 56.882988494 3.62476451139 1.16617 1.18791 4.43334 1.17665 0.90369 4.49976 1.25058 0.0390029 4.58926 1.22201 0.762549 4.52576 -3.41863 16.1323 -1.77438 -2.99325 30.8088 0.528246 -0.0 0.0 -0.0 -1.38563 20.5958 0.388019 -28.5898 -11.2635 70.2076 1.08366 -28.2268 0.272475 -40.8509 -3.04211 4.1211 -2.41227 12.6251 -10.0573 -0.0 0.0 -0.0 14.0606 27.5875 -27.9383 11.7199 26.0073 -62.4829 2.2758 48.4195 -1.02336 67.4625 2.4814 7.75148 1.43438 -13.1958 -14.5991 0.0 0.0 0.0 23.3028 -2.94704 -2.94667 3.95472 -0.18294 -0.579088 -1.84726 29.0455 0.289944 -33.5872 0.0 0.0 -0.0 0.0 -0.0 -5.82839 -6.48517 17.3751 -15.6094 -0.322084 -2.36638 30.0772 7.71577 4.01218 27.8914 -0.0 -0.0 0.0 0.0 0.0 
3053.03958365 689.572 -1659.40244414 -7.81837120379 55.1496566619 -1.58860227897 0.95695 1.68778 4.7378 0.968372 1.38325 4.83529 1.08986 0.434376 5.01005 1.05692 1.21923 4.87913 -7.46177 16.7715 1.73266 -7.51536 30.0618 5.31763 -0.0 0.0 -0.0 -0.762713 18.2695 0.981986 -22.4251 -12.3964 66.3541 1.01041 -26.5886 0.238751 -42.4717 -3.21778 4.23247 -2.16163 12.262 -8.63531 -0.0 0.0 -0.0 13.8603 26.9892 -27.5512 5.37283 20.2164 -63.7361 2.05523 45.5084 -0.862082 65.8794 2.32438 7.6227 1.68688 -13.2715 -16.2781 0.0 0.0 0.0 16.4289 -2.32822 2.20771 5.39282 -0.259336 -0.786411 6.61457 26.6354 -1.00267 -30.4985 0.0 0.0 -0.0 0.0 -0.0 -7.90663 10.8305 20.2256 -30.9628 -0.00598805 -4.69428 32.4448 -7.31916 4.14506 32.7499 -0.0 -0.0 0.0 0.0 0.0 
3013.17586858 694.309 -1661.95952255 -4.23279290388 56.1809559506 -5.15538970662 0.849899 1.68007 4.73975 0.861343 1.37543 4.83675 0.982605 0.416983 5.01079 0.949595 1.20217 4.88259 -10.2571 17.0569 3.53637 -10.574 29.8462 7.91235 -0.0 0.0 -0.0 -0.497259 15.5281 1.03602 -17.365 -13.1991 63.9562 1.01803 -26.7613 0.242171 -42.2704 -3.19579 4.21891 -1.9497 13.2875 -6.78598 -0.0 0.0 -0.0 13.1335 21.9477 -26.4024 1.56416 20.2581 -65.583 1.88261 42.998 -0.741599 64.1556 2.15754 7.47763 1.83003 -13.5232 -17.3063 0.0 0.0 0.0 10.5881 -2.81673 5.41261 7.6571 -0.39013 -1.10886 12.2414 24.3022 -1.8007 -28.6305 0.0 0.0 -0.0 0.0 -0.0 -9.0996 19.5065 21.2785 -42.0416 0.601739 -6.2817 34.4401 -11.8716 4.3694 35.0521 -0.0 -0.0 0.0 0.0 0.0 
3013.17250383 694.309 -1662.03511906 -4.22988280161 56.1545924157 -5.15889301974 0.849899 1.68007 4.73975 0.861343 1.37543 4.83675 0.982605 0.416983 5.01079 0.949595 1.20217 4.88259 -10.2571 17.0569 3.53637 -10.574 29.8462 7.91235 -0.0 0.0 -0.0 -0.497259 15.5281 1.03602 -17.365 -13.1991 63.9562 1.01803 -26.7613 0.242171 -42.2704 -3.19579 4.21891 -1.9497 13.2875 -6.78598 -0.0 0.0 -0.0 13.1335 21.9477 -26.4024 1.56416 20.2581 -65.583 1.88261 42.998 -0.741599 64.1556 2.15754 7.47763 1.83003 -13.5232 -17.3063 0.0 0.0 0.0 10.5881 -2.81673 5.41261 7.6571 -0.39013 -1.10886 12.2414 24.3022 -1.8007 -28.6305 0.0 0.0 -0.0 0.0 -0.0 -9.0996 19.5065 21.2785 -42.0416 0.601739 -6.2817 34.4401 -11.8716 4.3694 35.0521 -0.0 -0.0 0.0 0.0 0.0 
3013.14280106 694.309 -1662.74026956 -4.20297455283 55.9086986139 -5.19133807514 0.849899 1.68007 4.73975 0.861343 1.37543 4.83675 0.982605 0.416983 5.01079 0.949595 1.20217 4.88259 -10.2571 17.0569 3.53637 -10.574 29.8462 7.91235 -0.0 0.0 -0.0 -0.497259 15.5281 1.03602 -17.365 -13.1991 63.9562 1.01803 -26.7613 0.242171 -42.2704 -3.19579 4.21891 -1.9497 13.2875 -6.78598 -0.0 0.0 -0.0 13.1335 21.9477 -26.4024 1.56416 20.2581 -65.583 1.88261 42.998 -0.741599 64.1556 2.15754 7.47763 1.83003 -13.5232 -17.3063 0.0 0.0 0.0 10.5881 -2.81673 5.41261 7.6571 -0.39013 -1.10886 12.2414 24.3022 -1.8007 -28.6305 0.0 0.0 -0.0 0.0 -0.0 -9.0996 19.5065 21.2785 -42.0416 0.601739 -6.2817 34.4401 -11.8716 4.3694 35.0521 -0.0 -0.0 0.0 0.0 0.0 
2997.03278709 697.117 -1664.44040308 -3.58708234379 56.5022563333 -5.72658454123 0.773445 1.39564 4.61243 0.784606 1.09964 4.69165 0.879454 0.164652 4.81571 0.848289 0.922278 4.72963 -9.58153 17.4233 3.52896 -9.84181 30.4248 7.81612 -0.0 0.0 -0.0 -0.310148 14.7268 1.23474 -15.8582 -13.623 63.3387 1.03554 -27.1562 0.250112 -42.5085 -3.2218 4.23494 -2.04273 13.7913 -7.12745 -0.0 0.0 -0.0 13.0706 21.5291 -26.2915 -0.00996215 19.7934 -65.7615 1.77631 41.3418 -0.670226 64.2587 2.16739 7.48644 1.87719 -13.2353 -17.5223 0.0 0.0 0.0 9.83371 -3.03199 6.10054 7.67028 -0.390928 -1.11072 12.0902 24.9016 -1.78499 -28.2748 0.0 0.0 -0.0 0.0 -0.0 -8.42545 20.4783 20.6433 -45.7715 0.874159 -6.78657 34.7309 -11.6728 4.39669 34.9556 -0.0 -0.0 0.0 0.0 0.0 
2997.03629528 697.117 -1664.3119043 -3.59095441835 56.5430818419 -5.72194234589 0.773445 1.39564 4.61243 0.784606 1.09964 4.69165 0.879454 0.164652 4.81571 0.848289 0.922278 4.72963 -9.58153 17.4233 3.52896 -9.84181 30.4248 7.81612 -0.0 0.0 -0.0 -0.310148 14.7268 1.23474 -15.8582 -13.623 63.3387 1.03554 -27.1562 0.250112 -42.5085 -3.2218 4.23494 -2.04273 13.7913 -7.12745 -0.0 0.0 -0.0 13.0706 21.5291 -26.2915 -0.00996215 19.7934 -65.7615 1.77631 41.3418 -0.670226 64.2587 2.16739 7.48644 1.87719 -13.2353 -17.5223 0.0 0.0 0.0 9.83371 -3.03199 6.10054 7.67028 -0.390928 -1.11072 12.0902 24.9016 -1.78499 -28.2748 0.0 0.0 -0.0 0.0 -0.0 -8.42545 20.4783 20.6433 -45.7715 0.874159 -6.78657 34.7309 -11.6728 4.39669 34.9556 -0.0 -0.0 0.0 0.0 0.0 
2985.94782682 700.746 -1667.95390971 -1.81663176618 56.690269818 -7.38891765699 0.624028 1.41293 4.71899 0.635728 1.11015 4.79908 0.734262 0.141547 4.92349 0.701619 0.916423 4.83972 -10.5265 17.3344 4.78203 -10.8339 29.5992 9.24758 -0.0 0.0 -0.0 -0.105444 13.7238 1.44563 -14.0564 -14.2711 61.9999 1.05107 -27.504 0.257242 -42.862 -3.26055 4.25855 -2.11369 14.4237 -7.26256 -0.0 0.0 -0.0 13.1848 20.9762 -26.6029 -1.48092 19.4604 -66.1351 1.62718 38.8678 -0.574138 63.7744 2.12123 7.44487 1.86878 -13.4939 -17.5527 0.0 0.0 0.0 7.89978 -3.47114 7.05378 7.75209 -0.395896 -1.12227 15.4549 25.5052 -2.26268 -27.6809 0.0 0.0 -0.0 0.0 -0.0 -7.76848 21.5793 20.0424 -49.2232 1.15519 -7.23738 34.5147 -10.7878 4.36864 35.5511 -0.0 -0.0 0.0 0.0 0.0 
2938.82275626 707.665 -1666.18246468 0.512455673073 57.7304295763 -10.0797082332 0.477372 0.998871 4.72833 0.489536 0.696324 4.78214 0.553036 -0.277583 4.82449 0.5209 0.486937 4.80791 -9.4726 18.2373 6.62492 -9.62001 29.8521 10.9527 -0.0 0.0 -0.0 0.279414 13.3115 2.02943 -11.4702 -15.208 60.6146 1.08612 -28.2809 0.273638 -44.0719 -3.39425 4.33753 -2.46585 16.6762 -8.32031 -0.0 0.0 -0.0 13.3555 20.2153 -27.0603 -5.35759 18.3497 -66.4472 1.1097 28.7972 -0.284901 63.103 2.05784 7.38661 1.91872 -13.2389 -17.799 0.0 0.0 0.0 4.52029 -4.81502 9.34857 7.50293 -0.380819 -1.08706 20.0244 27.8148 -2.92158 -26.2172 0.0 0.0 -0.0 0.0 -0.0 -4.62548 25.5207 17.3008 -57.563 1.94266 -8.2515 34.9453 -8.87347 4.40033 36.3474 -0.0 -0.0 0.0 0.0 0.0 
2905.34665002 702.559 -1656.41246481 1.36974519225 57.2200416425 -10.6613992605 0.533671 1.14672 4.19479 0.54303 0.87772 4.25909 0.612786 0.0103417 4.34842 0.587083 0.696321 4.29242 -8.89136 18.5255 6.61333 -8.98901 30.2651 10.859 -0.0 0.0 -0.0 0.214548 12.8378 1.87043 -9.62236 -15.8851 60.2536 1.11482 -28.9088 0.287375 -44.3286 -3.42282 4.35392 -2.44525 17.6115 -7.71169 -0.0 0.0 -0.0 12.4752 19.9502 -25.0316 -8.87751 19.8321 -66.5315 1.03473 27.1378 -0.249738 62.8566 2.03474 7.36504 2.04388 -12.4897 -18.3842 0.0 0.0 0.0 1.79494 -7.53433 10.5494 7.6696 -0.390887 -1.11062 21.732 26.1711 -3.11582 -26.2446 0.0 0.0 -0.0 0.0 -0.0 -4.15659 26.391 17.8775 -58.7154 2.06288 -8.38239 34.9095 -8.47119 4.39517 36.4102 -0.0 -0.0 0.0 0.0 0.0 
